:SAMPLES-PER-SECOND 30
:FULLY-SPECIFIED
:DEGREES
291
root  -12.7079 39.1362 -5.1074 166.994 -85.7811 -156.159
RightUpLeg  -20.9796 -12.589 -1.75651
RightLeg  26.3114 0.784942 0.198457
RightFoot  -8.60755 -0.194889 5.71453
RightToes  -1.16417e-010 0 -3.6325e-017
Spine  17.0495 -2.91619 3.21193
Spine1  12.8417 -3.34115 2.01135
HEad  -43.6378 -13.7347 13.0005
LeftShoulder1  1.1776 -0.213774 -25.4813
LeftArm  -7.13213 -12.0195 -45.5165
LeftForeArm  19.6618 -15.0826 -5.12977
LeftHand  -0.0269477 7.73424 0.690149
RightShoulder  -0.0916511 -3.78177 23.7318
RightArm  10.5836 9.91034 54.165
RightForeArm  17.3898 28.3634 5.18681
RightHand  -0.139277 3.52008 -2.06232
LeftUpLeg  -21.7065 11.7547 11.9848
LeftLeg  26.2957 0.162676 0.431849
LeftFoot  -3.18421 0.490841 -6.6175
LeftToes  1.47335e-010 -1.29615e-010 3.08757e-011
292
root  -12.9128 39.2068 -5.44165 173.148 -85.4534 -164.072
RightUpLeg  -18.5446 -12.4696 -2.25297
RightLeg  26.0701 1.16935 0.398328
RightFoot  -9.14729 -0.167156 5.46126
RightToes  -1.16417e-010 0 -3.6325e-017
Spine  17.6278 -2.78663 3.11605
Spine1  12.2788 -3.2676 2.24933
HEad  -42.2577 -14.4749 12.6542
LeftShoulder1  1.15914 -0.176464 -25.3007
LeftArm  -7.54768 -9.24367 -45.7321
LeftForeArm  20.5897 -15.1171 -5.01154
LeftHand  -0.035503 7.41185 0.268991
RightShoulder  -0.161038 -4.00496 24.2302
RightArm  11.6089 9.72096 53.6486
RightForeArm  15.3517 27.036 4.99619
RightHand  -0.160836 3.80971 -2.2929
LeftUpLeg  -20.0191 11.5365 12.4412
LeftLeg  27.3478 0.479029 0.615075
LeftFoot  -1.54559 0.651101 -7.46698
LeftToes  1.47335e-010 -1.29615e-010 3.08757e-011
293
root  -13.2016 39.258 -5.75521 179.464 -85.7415 -172.495
RightUpLeg  -15.5587 -13.179 -3.16766
RightLeg  26.0149 1.7778 0.718962
RightFoot  -9.95303 -0.127466 4.95092
RightToes  -1.16417e-010 0 -3.6325e-017
Spine  17.4137 -2.75987 2.78219
Spine1  13.0066 -3.52858 3.01574
HEad  -41.3008 -14.8226 12.5155
LeftShoulder1  1.08743 0.104635 -25.8191
LeftArm  -7.29764 -7.21733 -45.3658
LeftForeArm  21.101 -15.3253 -5.01179
LeftHand  -0.0326955 7.74358 0.437897
RightShoulder  -0.178904 -4.06186 24.3024
RightArm  12.1661 9.47231 53.2368
RightForeArm  14.5923 26.3099 4.87451
RightHand  -0.12608 3.52519 -1.88362
LeftUpLeg  -18.5814 10.54 12.6375
LeftLeg  29.2135 1.01686 0.961356
LeftFoot  0.548454 0.878353 -8.45945
LeftToes  1.47335e-010 -1.29615e-010 3.08757e-011
294
root  -13.464 39.2236 -6.02455 179.767 -85.8959 -174.707
RightUpLeg  -13 -13.5509 -3.57318
RightLeg  26.3397 2.05755 0.879646
RightFoot  -10.9703 -0.0899061 4.73505
RightToes  -1.16417e-010 0 -3.6325e-017
Spine  17.6174 -2.78544 3.34594
Spine1  13.053 -3.48334 3.28142
HEad  -39.8497 -15.3066 12.5874
LeftShoulder1  1.01957 0.38098 -26.484
LeftArm  -6.19076 -5.48472 -44.7093
LeftForeArm  21.2161 -15.6961 -5.13925
LeftHand  -0.0328744 8.13146 0.465587
RightShoulder  -0.187304 -4.08891 24.3201
RightArm  12.8496 9.05149 52.5741
RightForeArm  13.9625 26.0755 4.85656
RightHand  -0.0509792 3.42021 -0.918574
LeftUpLeg  -18.4793 10.1687 13.2015
LeftLeg  32.852 1.27649 1.2422
LeftFoot  3.13404 1.05189 -8.41857
LeftToes  1.47335e-010 -1.29615e-010 3.08757e-011
295
root  -13.7458 39.182 -6.2884 -176.192 -85.8655 179.438
RightUpLeg  -10.5923 -14.3129 -4.32407
RightLeg  26.7853 2.85182 1.33261
RightFoot  -12.0094 -0.0554815 4.45575
RightToes  -1.16417e-010 0 -3.6325e-017
Spine  17.5039 -2.6375 3.58538
Spine1  13.4301 -3.16109 3.10785
HEad  -38.5963 -16.3475 12.2127
LeftShoulder1  0.997752 0.447145 -26.4799
LeftArm  -4.04383 -3.62341 -44.3569
LeftForeArm  20.8449 -16.1921 -5.36327
LeftHand  -0.02651 7.6127 0.724525
RightShoulder  -0.237944 -4.24913 24.5187
RightArm  13.4389 8.81018 51.8111
RightForeArm  13.2688 25.8726 4.84886
RightHand  -0.0686004 3.62241 -1.14109
LeftUpLeg  -18.7167 10.0303 13.3014
LeftLeg  36.6838 1.95783 1.94542
LeftFoot  6.62678 1.00686 -6.71687
LeftToes  1.47335e-010 -1.29615e-010 3.08757e-011
296
root  -14.0454 39.1005 -6.47419 -174.819 -85.893 176.465
RightUpLeg  -8.43853 -14.7113 -4.9624
RightLeg  27.3624 3.28515 1.60946
RightFoot  -13.0841 -0.0241226 4.24739
RightToes  -1.16417e-010 0 -3.6325e-017
Spine  17.2293 -2.62261 3.99627
Spine1  13.9623 -2.97538 3.04183
HEad  -37.5439 -16.9208 12.1694
LeftShoulder1  0.955257 0.583719 -26.5593
LeftArm  -2.09596 -1.39306 -44.1754
LeftForeArm  20.7405 -17.5466 -5.11774
LeftHand  -0.0277662 7.80979 0.65049
RightShoulder  -0.289753 -4.41181 24.7224
RightArm  14.5772 9.2078 50.8196
RightForeArm  13.7502 25.9135 4.83201
RightHand  -0.0133823 3.93237 -0.431669
LeftUpLeg  -19.2543 9.73417 13.21
LeftLeg  40.2949 2.88542 2.988
LeftFoot  9.18895 0.530474 -3.1738
LeftToes  1.47335e-010 -1.29615e-010 3.08757e-011
297
root  -14.3625 39.037 -6.62054 -175.151 -85.8309 175.549
RightUpLeg  -6.46666 -14.8962 -5.3696
RightLeg  27.4879 3.48797 1.73226
RightFoot  -13.9726 -0.0010622 4.07514
RightToes  -1.16417e-010 0 -3.6325e-017
Spine  17.3138 -2.58176 4.05923
Spine1  13.793 -2.91699 3.32554
HEad  -36.3605 -17.2864 11.2304
LeftShoulder1  0.903532 0.788212 -27.1236
LeftArm  -0.51973 1.13414 -43.6149
LeftForeArm  20.4835 -18.8937 -4.76593
LeftHand  -0.0498584 7.98325 -0.181143
RightShoulder  -0.323358 -4.51894 24.7189
RightArm  15.9177 9.54399 50.0093
RightForeArm  12.7691 25.7915 4.85778
RightHand  -0.053997 3.99545 -0.933789
LeftUpLeg  -19.4521 10.0901 13.0914
LeftLeg  42.0409 2.27379 2.58332
LeftFoot  6.81069 0.309074 -2.21171
LeftToes  1.47335e-010 -1.29615e-010 3.08757e-011
